<?xml version="1.0" standalone="no"?>
<!DOCTYPE svg PUBLIC "-//W3C//DTD SVG 20010904//EN"
 "http://www.w3.org/TR/2001/REC-SVG-20010904/DTD/svg10.dtd">
<svg version="1.0" xmlns="http://www.w3.org/2000/svg"
 width="720.000000pt" height="720.000000pt" viewBox="0 0 720.000000 720.000000"
 preserveAspectRatio="xMidYMid meet">

<g transform="translate(0.000000,720.000000) scale(0.100000,-0.100000)"
fill="#000000" stroke="none">
<path d="M3290 6429 c-233 -55 -334 -92 -450 -164 -204 -128 -405 -395 -425
-565 -7 -57 -13 -71 -50 -113 -23 -27 -48 -67 -55 -90 -7 -23 -16 -52 -21 -65
-14 -35 -10 -240 6 -307 26 -112 45 -187 51 -197 6 -10 44 29 44 44 0 6 9 21
19 34 25 31 31 16 31 -76 0 -38 5 -81 12 -95 10 -22 8 -32 -12 -67 -17 -31
-24 -59 -24 -104 -1 -70 3 -79 33 -69 26 8 28 40 4 50 -17 6 -17 7 0 16 25 14
58 2 50 -18 -5 -13 -2 -15 18 -9 56 18 76 18 83 1 9 -24 -8 -50 -49 -75 -19
-12 -35 -25 -35 -29 0 -5 -31 -18 -69 -30 -79 -25 -83 -30 -79 -118 2 -33 -2
-71 -8 -84 -34 -71 -35 -192 -2 -225 13 -13 17 -10 32 23 30 67 49 74 157 61
52 -6 103 -10 114 -10 84 6 126 2 141 -12 8 -9 12 -16 7 -16 -4 0 -1 -5 7 -10
13 -9 13 -10 0 -10 -13 0 -13 -1 0 -10 13 -8 13 -14 -4 -44 -10 -19 -15 -39
-11 -46 6 -10 -38 -130 -58 -157 -5 -7 -26 -13 -46 -13 -20 0 -45 -6 -56 -13
-31 -21 -126 -50 -169 -51 -42 -1 -55 -15 -34 -37 52 -55 76 -116 47 -120 -5
-1 -13 -3 -19 -4 -5 -1 -14 -3 -20 -4 -5 0 -7 -8 -3 -17 5 -13 2 -15 -16 -9
-14 4 -23 2 -27 -9 -3 -8 -15 -18 -26 -22 -17 -5 -19 -11 -13 -47 4 -22 13
-47 21 -54 10 -10 11 -21 4 -39 -7 -18 -6 -32 2 -47 12 -21 12 -21 16 -2 8 43
24 40 17 -3 -8 -50 8 -98 35 -107 10 -3 23 -19 30 -35 11 -26 29 -41 55 -45
31 -5 41 -18 40 -50 -1 -19 2 -35 7 -35 4 0 8 -5 8 -11 0 -5 -3 -8 -7 -6 -5 3
-6 -19 -5 -49 3 -47 8 -58 33 -76 16 -12 29 -31 29 -43 0 -35 54 -80 103 -84
5 -1 6 -5 3 -9 -6 -9 29 -52 42 -52 4 0 13 -13 20 -30 14 -30 33 -36 42 -12 4
10 14 6 35 -13 44 -37 48 -40 75 -43 14 -1 31 -3 38 -4 6 -1 12 -5 12 -10 0
-4 8 -8 17 -8 9 0 36 -9 60 -21 34 -16 41 -24 33 -34 -8 -10 -8 -15 1 -21 8
-5 9 -3 4 6 -6 9 -4 11 4 6 7 -5 10 -11 7 -14 -4 -3 3 -15 14 -27 l21 -22 -23
2 c-13 1 -23 3 -23 4 0 1 -38 4 -84 7 -83 5 -86 6 -131 47 -26 23 -70 60 -99
82 -66 49 -81 64 -81 76 0 19 -29 8 -48 -19 -25 -35 -77 -187 -92 -272 -7 -36
-16 -75 -21 -88 -5 -13 -9 -55 -9 -95 1 -63 2 -70 14 -54 14 18 15 18 25 0 8
-14 11 -15 11 -3 0 9 6 6 16 -10 l15 -25 -5 25 c-3 14 -3 19 0 12 3 -6 9 -10
14 -7 4 3 6 -3 3 -14 -3 -10 0 -22 6 -25 6 -4 9 -1 5 7 -6 16 5 26 35 32 13 2
21 -4 25 -18 6 -25 25 -13 31 19 6 30 6 30 15 9 5 -14 2 -26 -9 -39 -9 -11
-10 -16 -3 -12 7 4 12 1 12 -8 0 -8 6 -21 13 -28 12 -13 14 -21 19 -95 2 -26
8 -43 15 -43 20 0 27 -49 14 -102 -11 -51 -8 -65 34 -138 21 -38 75 -215 75
-248 0 -16 7 -49 15 -72 8 -23 15 -55 15 -71 0 -16 4 -29 10 -29 10 0 30 62
30 95 1 43 47 152 74 174 10 9 16 30 16 60 0 49 25 110 50 122 8 4 41 20 74
34 81 38 289 235 565 535 219 239 273 291 346 338 119 76 182 130 253 215 90
107 118 150 187 285 32 61 62 112 66 112 17 0 18 -36 3 -88 -19 -65 -61 -145
-114 -217 -72 -96 -199 -311 -249 -420 -57 -124 -72 -159 -106 -245 -20 -52
-48 -126 -62 -165 -14 -38 -54 -127 -90 -196 -59 -118 -65 -135 -62 -209 1
-50 -23 -159 -45 -203 -14 -29 -62 -104 -105 -167 -44 -63 -136 -198 -205
-300 -68 -102 -138 -205 -155 -228 -17 -24 -92 -164 -167 -310 -75 -147 -158
-300 -185 -339 l-49 -73 2070 0 2070 0 0 899 0 899 -33 21 c-19 11 -78 32
-132 47 -54 14 -133 39 -174 54 -42 16 -116 43 -166 60 -49 18 -103 38 -120
45 -16 6 -64 26 -105 43 -41 17 -111 45 -155 62 -44 18 -93 37 -110 45 -16 7
-52 21 -80 30 -87 31 -247 104 -325 149 -118 68 -347 186 -377 196 -16 4 -66
22 -113 39 -47 18 -120 41 -163 52 -43 11 -88 25 -99 32 -11 7 -49 55 -84 108
-35 53 -80 118 -99 144 -20 25 -56 83 -81 128 -47 85 -94 143 -126 153 -27 8
-25 102 2 137 29 36 25 56 -10 63 -39 8 -52 26 -48 65 2 22 13 39 37 58 22 17
33 20 29 11 -7 -18 10 -44 32 -48 12 -3 13 -1 3 9 -14 14 -18 33 -5 25 4 -2 8
4 9 14 1 11 -2 22 -8 25 -16 11 -10 79 11 110 23 34 26 61 8 68 -18 5 -48 -3
-48 -14 0 -5 -7 -9 -14 -9 -12 0 -13 6 -7 28 5 15 14 46 20 68 13 49 44 62 82
34 23 -18 31 -68 15 -102 -10 -22 20 -29 55 -12 34 17 51 60 53 129 1 51 -2
58 -34 88 -19 19 -44 50 -55 70 -18 34 -18 37 -2 55 21 23 88 45 111 36 17 -6
30 -47 41 -126 l6 -46 22 22 c37 37 54 69 65 122 16 75 1 121 -45 140 -19 9
-42 13 -50 10 -19 -8 -93 4 -93 14 0 4 10 10 21 13 21 6 21 7 4 23 -14 15 -16
28 -11 78 19 183 19 184 -3 235 -30 71 -27 89 28 154 28 31 52 65 55 75 68
225 70 327 13 487 -14 39 -32 97 -40 130 -50 195 -79 250 -191 359 -74 72
-241 203 -341 267 -138 89 -363 187 -513 225 -95 24 -129 28 -297 30 -162 3
-202 0 -275 -17z m630 -854 c67 -1 108 -14 115 -35 8 -24 3 -100 -6 -106 -4
-2 -12 4 -18 13 -7 12 -10 13 -11 4 0 -8 -6 -11 -16 -7 -11 4 -14 1 -12 -12 1
-9 -1 -23 -5 -29 -5 -7 -4 -13 2 -13 6 0 8 -7 5 -15 -4 -8 -10 -15 -16 -15 -5
0 -7 3 -5 8 3 4 1 16 -3 27 -6 14 -8 7 -6 -22 1 -33 4 -39 14 -30 11 8 11 6 1
-16 -7 -15 -17 -27 -22 -27 -6 0 -1 -8 9 -17 39 -35 62 -77 53 -98 -7 -17 -8
-18 -10 -2 -3 32 -4 35 -11 42 -4 4 -4 -8 -2 -27 3 -23 2 -29 -5 -19 -13 21
-41 23 -34 3 4 -10 2 -13 -5 -8 -6 3 -13 2 -16 -3 -4 -5 -2 -12 4 -16 12 -7 9
-55 -3 -55 -5 0 -1 -7 7 -16 9 -8 14 -20 11 -25 -12 -18 -14 -50 -4 -43 16 10
6 -29 -11 -43 -13 -11 -12 -16 11 -33 20 -15 25 -26 21 -45 -2 -14 -11 -25
-21 -26 -46 -2 -160 -24 -219 -41 -18 -5 -43 -11 -55 -13 -46 -8 -126 -34
-149 -48 -12 -9 -37 -18 -55 -20 -17 -3 -39 -9 -49 -15 -11 -6 -27 -7 -42 -1
-17 6 -30 5 -45 -6 -19 -13 -24 -13 -45 1 -21 14 -25 14 -41 0 -22 -20 -35
-20 -64 -2 -25 16 -62 24 -123 25 -31 1 -49 9 -77 34 -20 18 -37 37 -37 42 0
6 -21 21 -47 34 -65 34 -82 49 -76 71 5 18 56 44 67 33 2 -3 3 11 0 30 -2 20
0 38 5 42 6 3 8 -3 6 -13 -2 -11 3 -19 11 -19 9 0 11 4 5 10 -13 13 -2 37 14
31 16 -6 29 12 15 21 -15 9 -13 38 3 29 9 -5 9 -4 0 6 -14 15 2 54 18 45 5 -4
9 -3 8 2 -4 25 3 35 20 30 15 -3 18 -1 14 11 -5 11 -3 13 8 7 8 -5 11 -4 6 0
-12 14 -38 15 -30 2 4 -7 -1 -6 -10 2 -18 15 -23 26 -7 16 6 -3 10 -1 10 5 0
6 5 8 12 4 7 -4 8 -3 4 4 -4 6 -14 8 -23 5 -11 -5 -14 -3 -8 6 6 10 3 11 -11
3 -29 -14 -44 -4 -44 31 0 56 129 160 248 199 31 10 63 25 72 33 26 24 253 40
302 21 24 -9 35 -8 61 8 18 10 52 20 77 23 25 2 62 8 84 14 21 6 40 8 43 6 2
-3 16 -1 31 3 15 5 34 5 42 2 8 -3 35 -7 60 -7z m245 -64 c10 -17 -9 -20 -30
-5 -18 14 -18 14 2 14 12 0 24 -4 28 -9z m-137 -169 c1 -14 -1 -22 -5 -18 -5
4 -8 11 -8 14 0 4 -3 12 -7 18 -4 6 -1 11 5 11 7 0 14 -12 15 -25z m72 -85
l25 -18 -35 6 c-37 7 -37 -3 0 -10 33 -6 34 -12 5 -17 -14 -3 -23 -3 -21 0 3
2 -5 13 -17 24 -12 11 -16 16 -8 12 10 -5 13 -3 8 8 -7 20 11 18 43 -5z m-75
-94 c0 -39 -13 -48 -46 -32 -9 5 -20 4 -25 -1 -5 -5 -14 1 -21 16 -6 13 -7 21
-2 18 5 -3 12 2 16 11 5 16 7 16 15 1 5 -9 13 -14 19 -11 5 4 9 1 9 -5 0 -7
-7 -10 -15 -7 -8 4 -17 1 -21 -6 -4 -7 -4 -9 1 -5 4 4 17 2 29 -4 11 -6 18 -7
14 -3 -6 6 17 65 25 65 1 0 2 -17 2 -37z m-1134 -488 c34 -18 30 -35 -10 -35
-33 0 -67 23 -57 38 10 16 31 15 67 -3z m697 -2 c42 -13 59 -15 82 -6 30 11
47 3 35 -17 -4 -6 -21 -8 -41 -4 -19 3 -72 3 -118 -1 -69 -5 -83 -10 -82 -23
0 -9 -7 -18 -17 -20 -15 -3 -18 0 -12 17 5 15 -1 27 -21 45 l-28 24 74 0 c44
1 97 -6 128 -15z m-523 -63 c4 -6 4 -22 1 -36 -6 -21 -9 -23 -26 -14 -11 6
-20 17 -20 25 0 7 -11 23 -25 33 -23 18 -23 21 -8 24 20 5 68 -15 78 -32z
m783 23 c-10 -2 -26 -2 -35 0 -10 3 -2 5 17 5 19 0 27 -2 18 -5z m-52 -39 c19
-45 15 -68 -11 -72 -16 -2 -25 7 -39 38 -20 47 -16 70 14 70 15 0 26 -11 36
-36z m256 -6 c-11 -11 -32 -3 -32 12 0 4 9 6 21 3 13 -4 17 -9 11 -15z m-462
-34 c0 -33 -33 -30 -38 4 -3 17 2 22 17 22 16 0 21 -6 21 -26z m608 -2 c18
-12 4 -42 -19 -42 -24 0 -37 29 -18 41 17 11 21 11 37 1z m-902 -61 c7 -1 14
-10 17 -21 3 -11 12 -20 21 -20 12 0 16 -10 16 -34 0 -19 5 -38 10 -41 6 -3
10 -27 10 -53 0 -26 9 -72 20 -102 23 -64 24 -71 7 -65 -27 11 -60 120 -59
195 2 65 -15 79 -87 73 -61 -6 -77 2 -67 35 3 9 16 22 28 27 20 9 34 10 84 6z
m-184 -46 c2 -14 -3 -21 -19 -23 -19 -3 -23 1 -23 26 0 16 3 32 7 36 9 9 31
-15 35 -39z m1133 -15 c12 -23 23 -30 48 -31 59 -2 92 1 158 17 70 16 124 16
124 -1 0 -31 -233 -105 -243 -77 -5 15 -88 16 -98 1 -3 -6 0 -18 9 -26 12 -12
22 -13 53 -4 21 6 42 7 46 3 13 -13 -35 -62 -59 -62 -30 0 -87 -73 -78 -100
12 -39 85 -34 85 6 0 8 11 19 24 23 13 5 36 21 51 35 33 31 78 36 68 9 -3 -10
-10 -23 -14 -28 -4 -6 -11 -26 -14 -44 -4 -23 -2 -31 6 -25 8 4 9 3 5 -5 -6
-9 -12 -9 -24 1 -10 7 -14 8 -10 4 10 -11 -28 -39 -41 -31 -19 11 -22 -17 -5
-53 9 -20 19 -46 20 -57 2 -11 5 -30 8 -42 3 -13 2 -23 -2 -23 -13 0 -12 -50
1 -50 7 0 5 -5 -5 -10 -15 -9 -15 -13 -2 -38 12 -26 12 -33 -6 -70 -11 -23
-23 -56 -27 -72 -5 -26 -10 -30 -33 -28 -17 1 -26 7 -23 14 2 7 -1 15 -8 20
-8 5 -10 3 -4 -7 6 -11 5 -12 -6 -1 -22 21 -47 14 -51 -13 l-3 -25 -33 31
c-28 26 -37 29 -60 21 -59 -19 -122 42 -76 75 16 12 6 13 -76 11 -52 -2 -149
1 -215 6 l-120 9 -62 62 c-35 34 -65 59 -68 57 -3 -3 -5 -18 -5 -33 0 -23 -4
-27 -17 -23 -39 13 -103 48 -119 65 -25 27 -58 23 -92 -11 -36 -35 -52 -38
-70 -9 -7 11 -18 18 -25 16 -7 -2 -22 0 -34 4 -21 8 -22 6 -12 -19 6 -15 24
-41 40 -58 18 -18 26 -34 21 -38 -18 -11 -60 12 -67 36 -12 37 -41 58 -80 58
-33 0 -35 2 -25 20 6 11 20 20 32 20 21 0 21 0 -2 25 -21 22 -26 24 -39 11 -8
-8 -15 -35 -16 -58 -3 -78 -44 -114 -59 -52 -9 33 34 114 60 114 13 0 74 72
74 86 0 8 9 14 21 14 20 0 60 35 88 77 8 12 18 20 22 17 9 -5 6 23 -4 32 -4 4
-3 12 2 18 13 17 20 83 10 93 -15 15 15 46 44 46 40 0 54 -17 60 -74 3 -27 22
-81 42 -120 19 -38 35 -79 35 -92 1 -30 38 -88 77 -121 28 -23 34 -25 39 -12
11 28 42 18 55 -18 12 -33 25 -41 134 -81 27 -10 109 -6 113 6 2 5 9 7 15 3 7
-3 -1 5 -18 17 -40 31 -112 107 -133 141 -19 32 -69 52 -106 42 -52 -13 -91
51 -78 126 7 40 11 46 37 50 33 6 92 -7 115 -26 16 -12 44 -22 85 -30 35 -6
87 -39 77 -49 -4 -5 -1 -5 6 -1 22 13 86 -16 134 -62 26 -25 46 -48 44 -51 -2
-3 0 -16 5 -28 8 -22 8 -22 38 7 16 17 43 33 60 36 43 9 111 84 105 117 -2 14
2 39 9 56 10 24 11 55 2 146 -6 71 -7 119 -1 125 14 14 43 -6 61 -40z m-1868
-272 c-3 -8 -6 -5 -6 6 -1 11 2 17 5 13 3 -3 4 -12 1 -19z m1695 -63 c-6 -55
-67 -73 -91 -27 -14 27 -24 80 -11 62 9 -13 10 -13 10 0 0 9 3 11 8 5 9 -12
42 -16 42 -5 0 11 34 18 41 8 3 -4 3 -24 1 -43z m-640 -27 c-8 -8 -12 -9 -12
-1 0 6 -3 20 -6 30 -7 17 -6 17 12 1 14 -14 16 -20 6 -30z m985 15 c0 -9 -4
-10 -14 -2 -7 6 -13 12 -13 14 0 1 6 2 13 2 8 0 14 -6 14 -14z m-925 -430 c10
-9 18 -21 18 -28 0 -12 42 -35 65 -35 17 0 75 -48 75 -62 0 -6 -12 -8 -27 -5
-16 4 -55 11 -88 17 -33 6 -89 20 -125 31 -81 24 -120 29 -142 18 -11 -6 -22
-3 -34 9 -10 9 -20 16 -23 14 -3 -2 -7 2 -9 10 -2 8 -1 9 5 3 16 -21 88 -17
133 6 24 13 61 22 86 23 23 0 41 3 38 8 -9 14 9 9 28 -9z m-309 -30 c-7 -2
-19 -2 -25 0 -7 3 -2 5 12 5 14 0 19 -2 13 -5z m-259 -120 c-34 -25 -66 -28
-81 -7 -13 18 -11 19 34 24 58 7 72 2 47 -17z m276 -48 c31 -23 36 -24 57 -10
32 22 83 19 109 -6 18 -17 26 -19 42 -10 12 6 27 11 35 11 22 0 40 -55 34 -97
-9 -53 -21 -61 -63 -38 -28 15 -37 16 -43 6 -11 -17 -91 -32 -111 -21 -9 5
-42 9 -74 9 -39 0 -64 5 -76 16 -12 11 -26 14 -44 9 -15 -3 -32 -1 -40 5 -7 6
-20 9 -29 5 -20 -7 -37 24 -37 66 0 27 3 30 21 25 13 -4 27 0 40 11 17 15 23
16 41 5 18 -11 24 -10 47 13 32 32 48 33 91 1z m-657 -45 c-3 -11 -14 -25 -25
-31 -16 -9 -19 -8 -13 2 6 9 3 11 -9 6 -10 -4 -15 -3 -11 3 3 6 1 10 -6 10
-21 0 -2 12 33 20 18 4 34 8 35 9 0 1 -1 -8 -4 -19z m1021 4 c11 -30 6 -82
-10 -95 -14 -11 -18 -10 -30 6 -18 25 -18 55 2 83 18 26 30 28 38 6z m-65
-170 c13 -12 -36 -41 -86 -53 -83 -18 -146 1 -112 34 24 23 178 37 198 19z
m-334 -18 c6 -1 22 -6 37 -10 15 -5 26 -13 25 -20 -5 -26 -69 -34 -108 -13
-22 11 -26 21 -21 51 2 7 32 4 67 -8z m547 -43 c-9 -26 -24 -78 -26 -95 -1 -3
-5 -10 -10 -15 -6 -5 -6 -2 -1 7 5 8 4 12 0 7 -11 -9 -35 -77 -35 -98 0 -9 6
-22 14 -28 12 -10 17 -8 25 7 9 17 16 19 45 12 19 -4 37 -6 39 -4 2 2 4 -3 4
-11 0 -8 -4 -15 -9 -15 -4 0 -8 -5 -8 -11 0 -6 -9 -23 -20 -39 -11 -15 -16
-31 -12 -35 4 -5 1 -5 -5 -1 -8 4 -13 2 -14 -6 0 -7 -5 1 -11 17 -15 42 -38
74 -39 55 -1 -8 -1 -21 0 -27 1 -7 -3 -21 -8 -31 -7 -13 -6 -23 2 -32 8 -9 9
-11 0 -6 -6 3 -13 3 -16 -1 -2 -5 -2 -3 -1 4 2 7 -2 15 -8 19 -6 4 -8 3 -5 -2
8 -14 -8 -37 -27 -40 -9 -1 -14 2 -10 7 3 5 9 7 13 5 4 -3 8 1 8 8 0 7 -6 13
-13 13 -7 0 -11 -3 -9 -6 5 -9 -21 -42 -37 -45 -7 -2 -20 -6 -28 -9 -8 -4 -28
-5 -45 -3 -16 2 -51 -5 -77 -15 -39 -15 -56 -17 -110 -8 -97 16 -163 37 -183
59 -17 19 -17 21 0 53 31 58 42 68 78 71 19 2 40 7 47 11 8 5 11 4 6 -3 -7
-11 12 -11 32 1 7 5 12 3 12 -5 0 -10 2 -10 8 -1 4 6 20 17 35 22 16 6 25 15
22 21 -3 5 0 10 7 11 7 0 25 3 41 5 15 3 27 1 27 -4 0 -13 43 -12 59 1 12 10
13 9 7 -1 -5 -8 14 2 40 20 27 19 55 48 63 64 8 16 31 44 52 63 22 19 39 41
39 48 0 8 4 12 9 9 5 -3 12 2 15 11 5 12 10 13 18 5 8 -8 8 -19 0 -39z m-44
-288 c-3 -3 -9 2 -12 12 -6 14 -5 15 5 6 7 -7 10 -15 7 -18z m-782 -691 c-8
-21 -11 -17 -20 21 -7 28 -6 29 10 13 10 -10 14 -23 10 -34z m3014 -1769 c0
-8 -7 -15 -15 -15 -8 0 -15 7 -15 15 0 8 7 15 15 15 8 0 15 -7 15 -15z m50 0
c0 -8 -7 -15 -15 -15 -8 0 -15 7 -15 15 0 8 7 15 15 15 8 0 15 -7 15 -15z
m555 6 c7 -12 -12 -24 -25 -16 -11 7 -4 25 10 25 5 0 11 -4 15 -9z m125 -70
l0 -80 -32 1 c-65 1 -93 39 -63 84 12 19 23 25 41 21 21 -4 24 0 24 24 0 19 5
29 15 29 12 0 15 -15 15 -79z m-620 44 c0 -9 9 -15 25 -15 16 0 25 6 25 15 0
8 7 15 15 15 8 0 15 -7 15 -15 0 -8 7 -15 15 -15 8 0 15 -4 15 -10 0 -5 -7
-10 -15 -10 -10 0 -15 -10 -15 -30 0 -20 5 -30 15 -30 18 0 20 -17 3 -23 -26
-9 -48 13 -48 48 0 31 -3 35 -25 35 -21 0 -25 -5 -25 -30 0 -20 5 -30 15 -30
15 0 20 -12 9 -23 -16 -16 -44 15 -44 48 0 18 -6 36 -12 39 -10 5 -10 7 0 12
6 3 12 12 12 20 0 8 5 14 10 14 6 0 10 -7 10 -15z m-110 -71 c0 -30 -5 -64
-10 -75 -11 -20 -40 -27 -40 -9 0 6 5 10 10 10 6 0 10 28 10 65 0 51 3 65 15
65 12 0 15 -13 15 -56z m50 1 c0 -42 -3 -55 -15 -55 -12 0 -15 13 -15 55 0 42
3 55 15 55 12 0 15 -13 15 -55z m270 36 c17 -33 11 -41 -31 -41 -27 0 -38 -4
-33 -11 3 -6 19 -9 35 -5 37 7 47 -11 15 -25 -36 -17 -76 10 -76 51 0 47 68
70 90 31z m90 9 c0 -5 -6 -10 -14 -13 -8 -3 -16 -22 -18 -44 -4 -56 -23 -46
-26 14 l-3 52 31 -1 c16 -1 30 -4 30 -8z m81 -27 l12 -37 19 37 c10 20 23 37
28 37 6 0 10 -2 10 -4 0 -11 -42 -96 -50 -101 -5 -3 -21 17 -35 44 -29 59 -30
61 -11 61 8 0 20 -17 27 -37z m109 -18 c0 -30 -4 -55 -10 -55 -5 0 -10 25 -10
55 0 30 5 55 10 55 6 0 10 -25 10 -55z m238 43 c7 -7 12 -20 12 -30 0 -14 -8
-18 -35 -18 -19 0 -35 -5 -35 -11 0 -7 12 -9 30 -7 39 6 49 -8 16 -23 -53 -25
-99 39 -59 83 18 21 53 24 71 6z m106 6 c42 -16 39 -85 -4 -99 -29 -9 -70 19
-70 50 0 41 35 64 74 49z m-499 -74 c11 -17 -5 -32 -21 -19 -7 6 -11 15 -8 20
7 12 21 11 29 -1z"/>
<path d="M4210 4280 c0 -5 5 -10 10 -10 6 0 10 5 10 10 0 6 -4 10 -10 10 -5 0
-10 -4 -10 -10z"/>
<path d="M3978 3843 c7 -3 16 -2 19 1 4 3 -2 6 -13 5 -11 0 -14 -3 -6 -6z"/>
<path d="M3430 2878 c0 -4 7 -8 15 -8 8 0 15 4 15 8 0 5 -7 9 -15 9 -8 0 -15
-4 -15 -9z"/>
<path d="M6557 373 c-4 -3 -7 -17 -7 -30 0 -18 6 -23 24 -23 13 0 27 7 30 16
11 28 -27 57 -47 37z"/>
<path d="M6160 370 c-12 -8 -9 -10 13 -10 16 0 26 4 22 10 -8 12 -16 12 -35 0z"/>
<path d="M6685 370 c-4 -6 5 -10 20 -10 15 0 24 4 20 10 -3 6 -12 10 -20 10
-8 0 -17 -4 -20 -10z"/>
<path d="M6801 366 c-15 -18 -3 -46 20 -46 25 0 35 26 19 45 -15 19 -24 19
-39 1z"/>
<path d="M2501 4584 c0 -11 3 -14 6 -6 3 7 2 16 -1 19 -3 4 -6 -2 -5 -13z"/>
<path d="M4820 3785 c-19 -22 -7 -41 13 -21 18 19 22 36 8 36 -5 0 -14 -7 -21
-15z"/>
<path d="M2865 2680 c-3 -5 1 -10 10 -10 9 0 13 5 10 10 -3 6 -8 10 -10 10 -2
0 -7 -4 -10 -10z"/>
<path d="M2470 2386 c-25 -13 -74 -36 -110 -52 -138 -61 -324 -225 -428 -376
-152 -222 -257 -455 -350 -773 -29 -98 -89 -394 -102 -500 -4 -38 -15 -117
-23 -175 -15 -101 -30 -225 -42 -337 l-6 -53 406 0 405 0 2 73 c1 39 2 142 3
227 2 148 19 272 45 320 15 27 40 211 39 282 -1 50 9 92 44 198 25 75 52 163
61 195 8 33 31 100 51 150 19 49 35 97 35 106 0 8 -15 33 -34 55 -48 56 -50
72 -21 138 25 57 32 93 61 301 8 61 19 123 24 139 14 42 13 106 -2 106 -7 0
-33 -11 -58 -24z"/>
<path d="M2566 1961 c-4 -7 -5 -15 -2 -18 9 -9 19 4 14 18 -4 11 -6 11 -12 0z"/>
</g>
</svg>
