<?xml version="1.0" standalone="no"?>
<!DOCTYPE svg PUBLIC "-//W3C//DTD SVG 20010904//EN"
 "http://www.w3.org/TR/2001/REC-SVG-20010904/DTD/svg10.dtd">
<svg version="1.0" xmlns="http://www.w3.org/2000/svg"
 width="1000.000000pt" height="750.000000pt" viewBox="0 0 1000.000000 750.000000"
 preserveAspectRatio="xMidYMid meet">

<g transform="translate(0.000000,750.000000) scale(0.100000,-0.100000)"
fill="#000000" stroke="none">
<path d="M4573 6325 c-304 -41 -574 -126 -843 -266 -537 -281 -972 -777 -1178
-1344 -293 -807 -154 -1685 377 -2375 87 -114 480 -511 613 -620 342 -281 754
-465 1198 -537 164 -26 606 -26 765 0 555 92 1025 337 1405 734 601 627 822
1525 586 2383 -80 291 -220 573 -415 835 -111 149 -562 597 -716 711 -335 249
-704 405 -1110 470 -137 22 -544 28 -682 9z m507 -46 c364 -32 693 -135 997
-309 100 -58 285 -182 279 -187 -1 -2 -50 22 -107 51 -236 124 -482 204 -774
253 -157 26 -573 26 -730 0 -396 -66 -752 -209 -1058 -424 -167 -118 -382
-320 -509 -478 -270 -337 -453 -756 -520 -1190 -25 -167 -30 -501 -9 -655 45
-329 146 -641 288 -893 46 -82 41 -83 -18 -2 -237 325 -391 717 -443 1123 -18
143 -21 417 -5 560 48 447 239 905 524 1257 149 184 364 379 559 507 449 295
1001 435 1526 387z m225 -519 c316 -30 618 -129 900 -295 155 -91 301 -244
444 -465 225 -348 333 -715 333 -1135 0 -336 -63 -613 -206 -910 -507 -1056
-1787 -1498 -2827 -975 -281 141 -530 340 -640 513 -147 229 -252 503 -305
792 -25 141 -30 433 -9 595 123 972 887 1740 1860 1869 168 23 292 26 450 11z
m1511 -845 c223 -296 368 -656 414 -1030 6 -49 11 -162 11 -250 0 -252 -29
-437 -107 -673 -223 -680 -789 -1210 -1489 -1393 -650 -170 -1361 -15 -1878
409 -122 100 -133 121 -32 57 258 -163 577 -276 890 -315 132 -17 400 -15 540
5 494 67 925 288 1275 651 572 593 753 1469 464 2241 -47 126 -132 295 -200
401 -30 45 -54 85 -54 88 0 9 112 -120 166 -191z"/>
<path d="M6425 4144 c-42 -22 -61 -40 -116 -113 -50 -65 -161 -274 -195 -366
-23 -64 -111 -155 -149 -155 -37 0 -40 22 -10 74 33 56 33 131 1 131 -17 0
-20 -8 -20 -53 -1 -43 -6 -57 -24 -72 -12 -10 -22 -27 -22 -38 0 -11 -20 -38
-45 -61 -35 -32 -52 -41 -80 -41 -29 0 -37 5 -46 28 -40 101 159 352 210 265
9 -16 10 -14 11 9 0 57 -75 61 -148 8 -23 -16 -63 -63 -91 -103 -53 -78 -161
-183 -198 -193 -13 -4 -30 -3 -39 0 -26 10 -13 92 29 181 21 42 37 79 37 81 0
2 -10 4 -22 4 -34 -1 -97 -32 -155 -79 -58 -45 -59 -41 -13 48 24 48 26 79 5
87 -36 14 -74 -12 -186 -125 l-116 -118 39 101 c49 124 50 130 17 134 -22 3
-29 -2 -38 -28 -17 -52 -95 -153 -167 -219 -72 -66 -105 -81 -130 -60 -24 19
-13 72 35 177 44 95 50 129 26 138 -32 12 -83 -23 -188 -129 -59 -60 -107
-107 -107 -105 0 2 18 50 40 107 22 56 38 107 34 112 -8 13 -40 11 -51 -3 -6
-7 -20 -43 -33 -81 -18 -56 -33 -79 -85 -132 -97 -98 -178 -132 -191 -79 -8
31 3 160 15 181 5 9 27 16 57 17 53 3 105 23 111 43 3 7 -12 3 -34 -8 -41 -21
-123 -26 -123 -8 0 31 76 232 125 329 30 61 55 113 55 115 0 7 -36 6 -55 -1
-9 -4 -88 -96 -176 -205 -88 -109 -163 -200 -168 -203 -4 -3 -57 4 -117 15
-194 36 -300 25 -339 -35 -24 -36 -30 -117 -11 -141 15 -19 15 -18 16 17 0 27
8 47 30 72 45 51 83 60 225 53 190 -10 188 -3 52 -139 -141 -141 -221 -188
-319 -188 -87 0 -128 26 -128 81 0 10 -4 19 -10 19 -15 0 -12 -47 5 -80 23
-44 69 -64 145 -64 127 -1 224 70 436 315 l31 36 68 -8 c37 -5 69 -10 71 -12
2 -1 -1 -20 -6 -42 -14 -61 -12 -143 5 -175 13 -26 21 -30 56 -30 56 0 96 20
159 79 30 28 55 51 56 51 1 0 -6 -21 -16 -47 -35 -95 -35 -94 0 -81 22 7 60
46 125 128 93 117 138 160 169 160 9 0 16 -2 16 -4 0 -2 -16 -37 -35 -77 -46
-98 -55 -159 -26 -188 25 -25 70 -27 117 -5 19 9 71 55 115 102 l80 86 -36
-102 c-19 -56 -35 -103 -35 -106 0 -3 13 0 30 5 20 7 59 48 120 125 90 114
166 182 183 165 5 -5 -8 -42 -32 -90 -71 -140 -50 -159 55 -50 63 65 120 107
130 96 2 -2 -5 -25 -16 -50 -50 -112 -34 -197 36 -197 47 0 88 22 154 86 l55
52 1 -46 c1 -36 6 -50 28 -69 46 -39 133 -25 185 31 21 22 25 23 51 10 34 -18
63 -8 114 36 l36 32 0 -46 c0 -124 125 -113 252 22 41 44 75 92 65 92 -2 0
-37 -33 -78 -73 -41 -40 -91 -81 -112 -91 -37 -17 -40 -17 -58 0 -22 20 -26
88 -8 126 6 13 40 48 76 78 156 131 333 362 333 434 0 49 -66 71 -125 40z m91
-28 c11 -28 -74 -166 -183 -298 -68 -82 -152 -162 -162 -153 -11 11 130 272
184 340 81 102 147 147 161 111z m-2201 -113 c-4 -10 -29 -81 -55 -158 l-48
-140 -42 3 c-87 7 -88 9 -18 98 35 44 86 110 113 147 49 68 63 81 50 50z"/>
</g>
</svg>
